<?xml version="1.0" standalone="no"?>
<!DOCTYPE svg PUBLIC "-//W3C//DTD SVG 20010904//EN"
 "http://www.w3.org/TR/2001/REC-SVG-20010904/DTD/svg10.dtd">
<svg version="1.0" xmlns="http://www.w3.org/2000/svg"
 width="1080.000000pt" height="1080.000000pt" viewBox="0 0 1080.000000 1080.000000"
 preserveAspectRatio="xMidYMid meet">
<metadata>
Created by potrace 1.11, written by Peter Selinger 2001-2013
</metadata>
<g transform="translate(0.000000,1080.000000) scale(0.100000,-0.100000)"
fill="#000000" stroke="none">
<path d="M2567 10004 c-2 -2 -66 -8 -407 -34 -251 -19 -319 -25 -435 -35 -27
-2 -88 -7 -135 -10 -47 -3 -101 -8 -120 -10 -19 -2 -66 -7 -105 -10 -372 -29
-577 -46 -610 -51 -67 -10 -113 -42 -131 -91 -30 -77 -2 -168 149 -493 19 -41
70 -151 112 -245 43 -93 97 -212 121 -263 24 -52 44 -95 44 -97 0 -2 22 -50
49 -107 27 -56 158 -339 291 -628 271 -586 259 -561 400 -865 56 -121 154
-332 217 -470 113 -245 135 -292 215 -465 46 -97 204 -440 238 -515 104 -229
203 -432 229 -466 77 -106 189 -155 330 -146 95 6 223 37 1476 364 541 141
629 163 636 155 4 -4 73 -126 154 -272 81 -146 159 -285 172 -310 14 -25 41
-74 61 -110 20 -36 48 -87 64 -113 15 -26 28 -50 28 -53 0 -2 10 -21 23 -42
13 -20 39 -66 59 -102 31 -58 366 -644 407 -712 78 -131 126 -201 169 -245 75
-77 101 -88 207 -87 76 0 108 6 205 37 63 21 135 44 160 52 25 7 198 68 385
135 187 67 401 143 475 170 226 80 692 247 750 269 30 11 280 101 556 200 600
216 847 307 896 332 90 46 97 103 26 204 -69 99 -973 1316 -1114 1500 -29 39
-50 71 -46 72 9 4 967 259 1057 283 181 47 272 73 297 86 30 15 48 42 48 71 0
10 -63 97 -141 193 -77 96 -153 191 -169 210 -15 19 -68 85 -117 145 -49 61
-197 245 -330 410 -438 544 -448 556 -515 588 -73 34 -15 41 -763 -84 -231
-38 -436 -72 -455 -75 -198 -32 -364 -65 -395 -79 -52 -25 -71 -57 -58 -99 6
-18 135 -211 288 -427 153 -217 294 -416 314 -444 219 -311 282 -401 328 -467
l53 -76 -92 -22 c-51 -12 -185 -44 -298 -71 -113 -27 -263 -63 -335 -80 -132
-32 -401 -96 -620 -149 -134 -32 -550 -132 -780 -187 -82 -19 -260 -62 -395
-95 -135 -32 -265 -63 -290 -69 -25 -5 -53 -12 -62 -15 -13 -4 -109 149 -449
718 -493 825 -540 903 -897 1500 -144 240 -269 450 -279 467 -10 17 -44 75
-77 128 -32 54 -182 305 -334 558 -151 253 -292 485 -312 515 -80 116 -111
130 -290 127 -72 -1 -132 -3 -133 -3z m139 -271 c8 -6 236 -392 327 -553 18
-33 79 -138 315 -545 125 -216 328 -568 352 -610 9 -16 40 -68 67 -115 28 -47
109 -186 180 -310 72 -124 195 -335 273 -470 79 -135 156 -270 173 -300 16
-30 33 -59 38 -65 6 -8 63 -106 282 -485 11 -19 30 -53 43 -75 12 -22 52 -92
88 -154 67 -118 75 -141 54 -159 -11 -8 -283 -77 -378 -96 -14 -2 -110 -25
-215 -51 -104 -25 -228 -55 -275 -66 -47 -11 -148 -36 -225 -54 -508 -122
-702 -167 -720 -167 -36 0 -45 2 -45 11 0 5 -41 94 -91 198 -50 103 -117 242
-149 308 -62 128 -454 939 -603 1245 -49 102 -115 239 -147 305 -32 66 -99
206 -150 310 -51 105 -130 267 -175 360 -45 94 -121 249 -167 345 -47 96 -117
240 -156 320 -38 80 -129 266 -201 414 -72 148 -133 280 -135 293 -6 29 3 34
67 39 79 6 151 12 397 34 124 12 254 23 290 26 36 3 83 7 105 9 22 2 72 6 110
9 135 12 171 15 340 30 292 27 317 28 331 19z m6153 -1570 c24 -23 165 -200
355 -448 17 -22 33 -42 37 -45 23 -21 453 -577 456 -591 3 -12 -4 -22 -24 -32
-25 -13 -40 -17 -108 -31 -11 -3 -139 -35 -285 -71 -146 -37 -275 -69 -288
-71 -12 -2 -104 -25 -205 -50 -100 -25 -193 -49 -207 -52 -69 -15 -66 -18
-209 179 -75 103 -268 368 -429 589 -161 221 -296 408 -298 414 -7 19 15 33
61 40 35 6 80 14 230 41 99 18 375 67 400 71 17 3 120 23 230 44 110 21 212
38 227 39 17 1 39 -9 57 -26z m-405 -1790 c9 -10 90 -119 179 -243 89 -124
171 -237 182 -252 11 -14 28 -37 37 -50 10 -13 145 -198 301 -412 156 -213
292 -401 301 -417 16 -27 16 -29 -2 -47 -10 -10 -54 -30 -98 -45 -43 -14 -293
-99 -554 -187 -261 -89 -513 -174 -560 -190 -328 -111 -1163 -395 -1345 -457
-357 -122 -332 -115 -365 -98 -16 8 -40 30 -54 48 -28 36 -254 415 -404 677
-52 91 -103 179 -114 195 -39 61 -428 738 -425 741 3 3 346 93 712 188 160 41
342 88 405 105 63 16 255 66 425 110 171 45 371 97 445 117 74 19 142 37 150
39 8 2 148 38 310 80 162 43 304 79 316 81 11 2 38 10 60 18 53 20 77 19 98
-1z"/>
<path d="M1410 2880 c0 -39 4 -71 10 -71 6 -1 68 -2 139 -3 71 0 132 -4 135
-7 3 -3 6 -241 6 -530 1 -391 4 -540 14 -586 23 -109 88 -192 181 -235 44 -19
70 -23 213 -26 l163 -4 -3 78 -3 79 -120 1 c-134 1 -180 15 -215 64 -43 60
-45 96 -45 718 l1 592 -238 0 -238 0 0 -70z"/>
<path d="M2824 2533 c-44 -6 -116 -23 -160 -37 l-79 -25 1 -86 c1 -47 4 -88 7
-91 3 -3 25 3 49 14 74 33 153 60 199 68 56 9 174 9 219 0 101 -21 162 -96
164 -202 l1 -56 -175 -3 c-176 -3 -239 -11 -318 -39 -85 -30 -164 -101 -194
-173 -18 -44 -19 -53 -25 -143 -9 -151 50 -264 170 -326 103 -54 282 -55 396
-1 25 11 70 45 99 74 l52 54 0 -71 0 -70 94 0 94 0 -3 408 c-3 423 -5 445 -48
528 -40 76 -148 151 -253 174 -72 16 -198 18 -290 3z m405 -620 c-9 -211 -113
-344 -282 -360 -88 -8 -150 10 -196 56 -66 66 -77 180 -24 254 56 81 133 104
351 106 l153 2 -2 -58z"/>
<path d="M4420 2543 c-55 -8 -127 -37 -170 -69 -53 -38 -73 -61 -100 -112 -11
-20 -20 -32 -21 -27 0 6 -2 48 -2 95 l-2 85 -92 3 -93 3 0 -551 0 -550 94 0
94 0 0 313 c1 233 4 327 15 372 39 167 138 254 298 263 93 5 162 -10 225 -49
25 -17 48 -28 51 -26 2 3 4 45 4 93 0 101 -1 101 -89 134 -51 19 -157 31 -212
23z"/>
<path d="M5287 2544 c-1 -1 -21 -4 -45 -8 -52 -7 -106 -20 -187 -47 l-60 -19
0 -90 c0 -75 3 -90 16 -90 8 0 19 4 25 9 18 17 147 63 213 75 232 44 378 -29
384 -194 l2 -62 -180 -4 c-189 -3 -194 -4 -284 -30 -146 -42 -230 -136 -249
-280 -17 -129 20 -247 100 -319 66 -59 141 -86 248 -90 141 -5 234 28 318 113
l52 53 0 -71 0 -70 94 0 95 0 -1 376 c-1 208 -5 402 -10 433 -25 161 -139 271
-318 307 -31 6 -207 13 -213 8z m350 -646 c-10 -121 -51 -224 -111 -275 -126
-110 -349 -90 -402 35 -46 112 -6 230 95 275 66 29 97 34 270 36 l154 2 -6
-73z"/>
<path d="M6414 2540 c-42 -9 -98 -45 -124 -78 l-21 -27 3 43 4 42 -87 0 -86 0
1 -547 1 -548 83 -3 c73 -2 82 -1 82 15 0 10 2 196 4 413 2 217 7 407 10 422
18 77 45 107 103 114 77 9 117 -40 127 -157 4 -37 7 -234 7 -438 l1 -371 84 0
84 0 1 358 c0 357 1 390 14 490 11 91 82 142 157 113 70 -27 78 -83 78 -568
l0 -393 86 0 85 0 -2 408 c-1 439 -8 527 -52 612 -70 136 -296 141 -376 9
l-18 -29 -27 40 c-42 64 -139 99 -222 80z"/>
<path d="M7654 2535 c-45 -7 -114 -23 -155 -35 -41 -13 -77 -23 -81 -22 -5 1
-8 -10 -9 -26 -1 -43 -1 -94 0 -134 l1 -38 38 21 c94 54 241 88 358 84 151 -6
237 -82 238 -212 l1 -56 -180 -2 c-150 -2 -193 -6 -260 -24 -195 -54 -283
-172 -273 -371 5 -107 37 -180 105 -239 65 -58 138 -83 248 -86 157 -4 273 45
341 145 l24 35 0 -78 0 -77 94 0 94 0 -3 408 c-3 423 -5 445 -48 528 -23 45
-95 111 -151 138 -99 48 -232 62 -382 41z m396 -608 c0 -108 -43 -230 -102
-291 -50 -51 -107 -77 -186 -83 -150 -12 -243 61 -247 192 -2 88 36 153 113
187 63 28 111 35 275 37 l147 2 0 -44z"/>
<path d="M8980 2535 c-78 -21 -99 -33 -150 -84 l-50 -50 0 59 0 60 -94 0 -94
0 0 -758 0 -758 94 0 94 0 0 270 0 270 25 -34 c58 -79 185 -128 302 -116 208
21 329 157 378 426 17 92 3 336 -22 400 -3 8 -7 21 -9 28 -8 41 -74 151 -113
189 -93 93 -237 131 -361 98z m157 -170 c75 -30 136 -129 151 -250 12 -86 7
-287 -7 -340 -43 -156 -137 -235 -263 -222 -119 12 -198 104 -226 262 -9 49
-9 255 0 310 32 203 181 306 345 240z"/>
</g>
</svg>
